<svg xmlns="http://www.w3.org/2000/svg" viewBox="-657 5383 80.249 71">
  <defs>
    <style>
      .cls-1 {
        fill: #5380b4;
      }

      .cls-2 {
        fill: #666;
      }
    </style>
  </defs>
  <g id="logo" transform="translate(-656.97 5383)">
    <g id="logo_1_" transform="translate(-0.03)">
      <path id="Path_396" data-name="Path 396" class="cls-1" d="M11.035,56.558a3.7,3.7,0,0,0,3.723-3.723v-2h-1.8v2a1.935,1.935,0,0,1-3.87,0V43.123a1.935,1.935,0,0,1,3.87,0v2.169l1.787-.21v-1.96a3.723,3.723,0,0,0-7.445,0v9.713A3.722,3.722,0,0,0,11.035,56.558Z" transform="translate(-6.396 -34.543)"/>
      <path id="Path_397" data-name="Path 397" class="cls-1" d="M88.823,56.558a3.65,3.65,0,0,0,2.515-.961,2.48,2.48,0,0,0,1.824.789V54.6a.61.61,0,0,1-.616-.616V42.913a3.519,3.519,0,0,0-7.038,0v2.206l1.787-.21v-2a1.726,1.726,0,0,1,3.451,0V44.6a3.013,3.013,0,0,1-1.479,2.243l-2.65,1.516A3.176,3.176,0,0,0,85.1,50.95v1.9A3.7,3.7,0,0,0,88.823,56.558Zm-1.935-5.621A1.27,1.27,0,0,1,87.5,49.9l2.65-1.516a3.3,3.3,0,0,0,.592-.444v4.894a1.935,1.935,0,1,1-3.87,0v-1.9Z" transform="translate(-74.607 -34.543)"/>
      <path id="Path_398" data-name="Path 398" class="cls-1" d="M172.9,43.3a2.068,2.068,0,0,1,2.071-2.108h1.27V39.4c-1.824,0-3,.592-3.587,1.479l-.308-1.307H171.1V56.386h1.787V43.3Z" transform="translate(-150.006 -34.543)"/>
      <path id="Path_399" data-name="Path 399" class="cls-1" d="M222.569,30.847a2.462,2.462,0,0,0,2.478,2.478V31.538a.689.689,0,0,1-.69-.69V18.126h2.169V16.339h-2.169V12.9l-1.787.2v3.242H220.4v1.787h2.169Z" transform="translate(-193.229 -11.31)"/>
      <path id="Path_400" data-name="Path 400" class="cls-1" d="M304.477,0,301.1,1.516V3.3l3.377-1.516Z" transform="translate(-263.982)"/>
      <path id="Path_401" data-name="Path 401" class="cls-1" d="M288.323,56.558a3.7,3.7,0,0,0,3.723-3.723V43.123a3.723,3.723,0,0,0-7.445,0v9.713A3.711,3.711,0,0,0,288.323,56.558ZM286.4,43.123a1.935,1.935,0,1,1,3.87,0v9.713a1.935,1.935,0,1,1-3.87,0Z" transform="translate(-249.515 -34.543)"/>
      <path id="Path_402" data-name="Path 402" class="cls-1" d="M370.5,43.3a2.068,2.068,0,0,1,2.071-2.108h1.27V39.4c-1.824,0-3,.592-3.587,1.479l-.308-1.307H368.7V56.386h1.787V43.3Z" transform="translate(-323.249 -34.543)"/>
      <rect id="Rectangle_96" data-name="Rectangle 96" class="cls-1" width="1.787" height="2.416" transform="translate(52.588 0.69)"/>
      <rect id="Rectangle_97" data-name="Rectangle 97" class="cls-1" width="1.787" height="16.813" transform="translate(52.588 5.029)"/>
      <path id="Path_403" data-name="Path 403" class="cls-1" d="M468.623,56.558a3.7,3.7,0,0,0,3.723-3.723V43.123a3.723,3.723,0,0,0-7.445,0v9.713A3.7,3.7,0,0,0,468.623,56.558ZM466.7,43.123a1.935,1.935,0,1,1,3.87,0v9.713a1.935,1.935,0,0,1-3.87,0Z" transform="translate(-407.591 -34.543)"/>
      <path id="Path_404" data-name="Path 404" class="cls-1" d="M548.347,56.558a3.7,3.7,0,0,0,3.723-3.723V51.394a3.83,3.83,0,0,0-1.208-2.823l-3.723-3.106a1.911,1.911,0,0,1-.592-1.442V42.987a1.787,1.787,0,1,1,3.575,0V44.75l1.787-.21V42.987a3.587,3.587,0,1,0-7.174,0v1.035a3.83,3.83,0,0,0,1.208,2.823l3.723,3.106a1.911,1.911,0,0,1,.592,1.442v1.442a1.935,1.935,0,1,1-3.87,0V50.974l-1.787.21v1.652A3.756,3.756,0,0,0,548.347,56.558Z" transform="translate(-477.467 -34.543)"/>
      <path id="Path_405" data-name="Path 405" class="cls-1" d="M155.14,228.706a4.24,4.24,0,0,0,4.24-4.24v-2.354h-2.293v2.354a1.948,1.948,0,0,1-3.9,0V213.828a1.948,1.948,0,0,1,3.9,0v2.564l2.293-.259V213.84a4.24,4.24,0,0,0-8.481,0v10.638A4.237,4.237,0,0,0,155.14,228.706Z" transform="translate(-132.296 -183.764)"/>
      <path id="Path_406" data-name="Path 406" class="cls-1" d="M233.14,209.5a4.24,4.24,0,0,0-4.24,4.24v10.638a4.24,4.24,0,1,0,8.481,0V213.74A4.248,4.248,0,0,0,233.14,209.5Zm1.96,14.878a1.948,1.948,0,0,1-3.9,0V213.74a1.948,1.948,0,0,1,3.9,0Z" transform="translate(-200.681 -183.676)"/>
      <path id="Path_407" data-name="Path 407" class="cls-1" d="M309.535,210.905l-.284-1.208H307.6v18.736h2.293V213.74a1.948,1.948,0,1,1,3.9,0v14.693h2.293V213.74a1.948,1.948,0,1,1,3.9,0v14.693h2.293V213.74a4.24,4.24,0,0,0-4.24-4.24,4.152,4.152,0,0,0-3.02,1.27,3.471,3.471,0,0,0-5.473.136Z" transform="translate(-269.68 -183.676)"/>
      <rect id="Rectangle_98" data-name="Rectangle 98" class="cls-1" width="2.293" height="3.008" transform="translate(53.389 41.749)"/>
      <path id="Path_408" data-name="Path 408" class="cls-2" d="M461.069,229.836l3.156-18.736h-2.305l-2.157,13.793-2.132-13.658-.025-.136H455.3l3.156,18.736Z" transform="translate(-399.174 -185.079)"/>
      <path id="Path_409" data-name="Path 409" class="cls-2" d="M546.681,216.133V213.84a4.24,4.24,0,0,0-8.481,0v10.638a4.24,4.24,0,0,0,8.481,0v-2.354h-2.293v2.354a1.948,1.948,0,0,1-3.9,0V213.84a1.948,1.948,0,0,1,3.9,0V216.4Z" transform="translate(-471.856 -183.764)"/>
      <path id="Path_410" data-name="Path 410" class="cls-1" d="M33.119,243.769h-.493a32.241,32.241,0,0,1-28.979-45.3l-.838-.37a33.161,33.161,0,0,0,29.805,46.581h.505a33.142,33.142,0,0,0,31.95-24.32l-.875-.247A32.233,32.233,0,0,1,33.119,243.769Z" transform="translate(0.03 -173.681)"/>
    </g>
    <g id="Group_234" data-name="Group 234" transform="translate(76.496 22.027)">
      <path id="Path_411" data-name="Path 411" class="cls-2" d="M622.661,178.7a1.909,1.909,0,0,1,.924.234,1.692,1.692,0,0,1,.69.69,1.838,1.838,0,0,1,.247.937,1.923,1.923,0,0,1-.247.924,1.692,1.692,0,0,1-.69.69,1.857,1.857,0,0,1-1.849,0,1.693,1.693,0,0,1-.69-.69,1.924,1.924,0,0,1-.246-.924,1.971,1.971,0,0,1,.246-.937,1.77,1.77,0,0,1,.69-.69A2.057,2.057,0,0,1,622.661,178.7Zm0,.37a1.447,1.447,0,0,0-.74.2,1.336,1.336,0,0,0-.555.555,1.54,1.54,0,0,0-.21.752,1.524,1.524,0,0,0,.2.752,1.5,1.5,0,0,0,.555.555,1.447,1.447,0,0,0,.74.2,1.524,1.524,0,0,0,.752-.2,1.5,1.5,0,0,0,.555-.555,1.46,1.46,0,0,0,.2-.752,1.506,1.506,0,0,0-.21-.752,1.412,1.412,0,0,0-.555-.555A1.373,1.373,0,0,0,622.661,179.07Zm-.838,2.5v-1.985h1.035a.865.865,0,0,1,.308.074.445.445,0,0,1,.185.185.573.573,0,0,1,.074.284.546.546,0,0,1-.136.37.626.626,0,0,1-.394.185.442.442,0,0,1,.136.074.856.856,0,0,1,.136.148c.012.025.062.1.148.247l.234.394h-.493l-.16-.32a1.141,1.141,0,0,0-.284-.407.484.484,0,0,0-.284-.086h-.1v.814h-.407Zm.407-1.122h.16a2.456,2.456,0,0,0,.431-.025.22.22,0,0,0,.136-.1.247.247,0,0,0,0-.3.279.279,0,0,0-.136-.1,1.657,1.657,0,0,0-.431-.025h-.16Z" transform="translate(-620.8 -178.7)"/>
    </g>
  </g>
</svg>
